<svg width="116" height="116" viewBox="0 0 116 116" fill="none" xmlns="http://www.w3.org/2000/svg">
<path d="M67.7204 22.7704H46.7222C45.675 22.7704 44.8426 21.938 44.8426 20.8907C44.8426 19.8435 45.675 19.0111 46.7222 19.0111H67.7204C68.7676 19.0111 69.6 19.8435 69.6 20.8907C69.6 21.938 68.7676 22.7704 67.7204 22.7704Z" fill="#88BDBC"/>
<path d="M59.7454 32.0343C59.262 32.0343 58.8056 31.8463 58.4296 31.4972C57.6778 30.7722 57.6778 29.5908 58.4028 28.8389L66.2435 20.8908L58.4028 12.9426C57.6778 12.1908 57.6778 11.0093 58.4296 10.2843C59.1815 9.55927 60.363 9.55928 61.088 10.3111L70.2176 19.575C70.9426 20.3 70.9426 21.4815 70.2176 22.2065L61.088 31.4704C60.712 31.8463 60.2287 32.0343 59.7454 32.0343Z" fill="#88BDBC"/>
<path d="M31.1482 88.6111C30.5037 88.6111 29.8593 88.2621 29.5102 87.6713L19.0111 69.4926C18.5009 68.6065 18.7963 67.4519 19.7093 66.9148C20.6222 66.3778 21.75 66.7 22.287 67.613L32.7861 85.7917C33.2963 86.6778 33.0009 87.8324 32.088 88.3695C31.7926 88.5306 31.4704 88.6111 31.1482 88.6111Z" fill="#88BDBC"/>
<path d="M16.6213 82.0055C16.4602 82.0055 16.2991 81.9787 16.1111 81.925C15.1176 81.6565 14.5269 80.6092 14.7954 79.6157L18.2593 67.0759C18.5278 66.0824 19.5481 65.4916 20.5417 65.7602L33.1352 69.0361C34.1287 69.3046 34.7463 70.325 34.4778 71.3185C34.2093 72.312 33.1889 72.9296 32.1954 72.6611L21.4009 69.8417L18.4204 80.6092C18.2056 81.4685 17.4537 82.0055 16.6213 82.0055Z" fill="#88BDBC"/>
<path d="M85.4694 87.3759C85.1472 87.3759 84.825 87.2954 84.5296 87.1343C83.6435 86.6241 83.3213 85.4695 83.8315 84.5565L94.3305 66.3778C94.8407 65.4917 95.9954 65.1695 96.9083 65.6797C97.8213 66.1898 98.1167 67.3445 97.6065 68.2574L87.1074 86.4361C86.7583 87.0269 86.1139 87.3759 85.4694 87.3759Z" fill="#88BDBC"/>
<path d="M84.9055 88.3694C84.0731 88.3694 83.3213 87.8324 83.1065 87L79.6426 74.4602C79.3741 73.4666 79.9648 72.4194 80.9583 72.1509C81.9518 71.8824 82.9991 72.4731 83.2676 73.4667L86.2481 84.2074L97.0157 81.388C98.0092 81.1194 99.0565 81.737 99.2981 82.7305C99.5667 83.7241 98.9491 84.7713 97.9555 85.013L85.3889 88.3157C85.2278 88.3426 85.0667 88.3694 84.9055 88.3694Z" fill="#88BDBC"/>
<path d="M57.8389 81.2268C52.3074 81.2268 47.8232 76.5278 47.8232 70.7546C47.8232 67.0222 49.7565 63.5315 52.8444 61.6518C54.3482 60.6852 56.1204 60.2018 57.9463 60.2018C63.4778 60.2018 67.9889 64.9009 67.9889 70.6741C67.9889 74.4333 66.0556 77.8972 62.9407 79.7768C61.4102 80.7167 59.638 81.2268 57.8389 81.2268ZM57.9463 63.9611C56.8185 63.9611 55.7713 64.2565 54.8583 64.8472C54.8315 64.8472 54.8315 64.8741 54.8046 64.8741C52.8176 66.0555 51.5824 68.3111 51.5824 70.7546C51.5824 74.4602 54.4019 77.4676 57.8389 77.4676C58.9398 77.4676 60.0407 77.1454 60.9806 76.5815C60.9806 76.5815 61.0074 76.5815 61.0074 76.5546C62.9944 75.3731 64.2296 73.1176 64.2296 70.6741C64.2296 66.9685 61.4102 63.9611 57.9463 63.9611Z" fill="white"/>
<path d="M68.9287 106.441C67.9083 106.441 67.0491 105.608 67.0491 104.588L66.9685 97.1232C66.9685 96.0759 67.8009 95.2435 68.8213 95.2167C69.8685 95.1898 70.7009 96.0491 70.7278 97.0695L70.8083 104.534C70.8083 105.581 69.9759 106.441 68.9287 106.441C68.9555 106.441 68.9287 106.441 68.9287 106.441Z" fill="white"/>
<path d="M76.2056 106.441C75.212 106.441 74.3796 105.662 74.3259 104.642L73.6278 90.0611C73.6009 89.5509 71.5333 87.9398 65.0083 87.2417C60.2287 86.7315 54.6435 86.8657 50.0787 87.5907C44.3593 88.5037 42.8824 89.9 42.775 90.2222C42.775 90.2491 42.775 90.2759 42.7482 90.3296C41.9694 93.713 41.8083 99.2176 41.7278 104.588C41.7009 105.635 40.8417 106.441 39.8213 106.441C38.7741 106.414 37.9685 105.555 37.9685 104.534C38.0759 97.6065 38.3176 92.9343 39.0694 89.5509C39.5528 86.9463 42.5602 85.1741 48.2259 84.1C52.5222 83.2945 58.1074 82.9991 63.1287 83.3213C69.5194 83.7509 77.1991 85.2278 77.387 89.9269L78.0852 104.481C78.1389 105.528 77.3333 106.387 76.2861 106.441C76.2593 106.441 76.2324 106.441 76.2056 106.441Z" fill="white"/>
<path d="M47.4741 106.441C46.4269 106.441 45.5945 105.581 45.5945 104.534L45.675 97.0695C45.675 96.0491 46.5343 95.2167 47.5546 95.2167H47.5815C48.6287 95.2167 49.4611 96.0759 49.4343 97.1232L49.3537 104.588C49.3537 105.608 48.4945 106.441 47.4741 106.441Z" fill="white"/>
<path d="M28.7046 32.4102C23.1731 32.4102 18.6889 27.7111 18.6889 21.938C18.6889 18.2056 20.6222 14.7148 23.7102 12.8352C25.2139 11.8685 26.9861 11.3852 28.812 11.3852C34.3435 11.3852 38.8546 16.0843 38.8546 21.8574C38.8546 25.6167 36.9213 29.0806 33.8065 30.9602C32.2759 31.9 30.5037 32.4102 28.7046 32.4102ZM28.812 15.1445C27.6843 15.1445 26.637 15.4398 25.7241 16.0306C25.6972 16.0306 25.6972 16.0574 25.6704 16.0574C23.6833 17.2389 22.4481 19.4945 22.4481 21.938C22.4481 25.6435 25.2676 28.6509 28.7046 28.6509C29.8056 28.6509 30.9065 28.3287 31.8463 27.7648C31.8463 27.7648 31.8731 27.7648 31.8731 27.738C33.8602 26.5565 35.0954 24.3009 35.0954 21.8574C35.0954 18.1519 32.2759 15.1445 28.812 15.1445Z" fill="white"/>
<path d="M39.7944 57.6241C38.7741 57.6241 37.9148 56.7917 37.9148 55.7713L37.8343 48.3065C37.8343 47.2593 38.6667 46.4269 39.687 46.4H39.7139C40.7343 46.4 41.5935 47.2324 41.5935 48.2528L41.6741 55.7176C41.6741 56.7648 40.8417 57.6241 39.7944 57.6241Z" fill="white"/>
<path d="M10.7407 57.6241H10.7139C9.66667 57.5972 8.86111 56.738 8.86111 55.7176C8.96852 48.7898 9.21019 44.1176 9.96204 40.7343C10.4454 38.1565 13.4259 36.3574 19.0917 35.2833C23.388 34.4778 28.9194 34.1824 33.9407 34.4778C40.3583 34.8806 48.0648 36.3574 48.2796 41.0565L48.6287 49.4074L48.7898 53.5963C48.8167 54.6435 48.0111 55.5028 46.9907 55.5565C45.9435 55.6102 45.0843 54.7778 45.0306 53.7574L44.8695 49.5685L44.5204 41.2176C44.4935 40.7074 42.3722 39.0963 35.7667 38.3982C30.987 37.888 25.4287 38.0491 20.8907 38.7741C15.225 39.687 13.7482 41.0833 13.6676 41.4056C13.6676 41.4324 13.6676 41.4593 13.6407 41.513C12.862 44.8963 12.7009 50.4009 12.6204 55.7713C12.5935 56.7917 11.7611 57.6241 10.7407 57.6241Z" fill="white"/>
<path d="M18.3398 57.6241C18.313 57.6241 18.3398 57.6241 18.3398 57.6241C17.2926 57.6241 16.4602 56.7648 16.4602 55.7176L16.5407 48.2528C16.5407 47.2055 17.4 46.3731 18.4472 46.4C19.4944 46.4 20.3268 47.2592 20.3 48.3065L20.2194 55.7713C20.2194 56.7916 19.3602 57.6241 18.3398 57.6241Z" fill="white"/>
<path d="M86.9732 32.4102C81.4417 32.4102 76.9574 27.7111 76.9574 21.938C76.9574 18.2056 78.8907 14.7148 81.9787 12.8352C83.4824 11.8685 85.2546 11.3852 87.0806 11.3852C92.612 11.3852 97.1232 16.0843 97.1232 21.8574C97.1232 25.6167 95.1898 29.0806 92.075 30.9602C90.5444 31.9 88.7722 32.4102 86.9732 32.4102ZM87.0806 15.1445C85.9528 15.1445 84.9056 15.4398 83.9926 16.0306C83.9657 16.0306 83.9657 16.0574 83.9389 16.0574C81.9519 17.2389 80.7167 19.4945 80.7167 21.938C80.7167 25.6435 83.5361 28.6509 86.9732 28.6509C88.0741 28.6509 89.175 28.3287 90.1148 27.7648C90.1148 27.7648 90.1417 27.7648 90.1417 27.738C92.1287 26.5565 93.3639 24.3009 93.3639 21.8574C93.3639 18.1519 90.5444 15.1445 87.0806 15.1445Z" fill="white"/>
<path d="M98.063 57.6241C97.0426 57.6241 96.1833 56.7917 96.1833 55.7713L96.1028 48.3065C96.1028 47.2593 96.9352 46.4269 97.9556 46.4H97.9824C99.0028 46.4 99.862 47.2324 99.862 48.2528L99.9426 55.7176C99.9426 56.7648 99.1102 57.6241 98.063 57.6241Z" fill="white"/>
<path d="M105.34 57.6241C104.346 57.6241 103.514 56.8454 103.46 55.825L102.762 41.2445C102.735 40.7343 100.668 39.1232 94.1426 38.425C89.363 37.9148 83.7778 38.0491 79.213 38.7741C73.4935 39.6871 72.0167 41.0834 71.9361 41.4056C71.9361 41.4324 71.9361 41.4593 71.9093 41.4861C71.587 42.8824 71.3454 45.2454 71.1843 48.5213C71.1037 50.0519 71.05 51.7167 70.9963 53.1935C70.9694 54.2408 70.1102 55.0463 69.063 55.0195C68.0157 54.9926 67.2102 54.1065 67.237 53.0861C67.2907 51.6093 67.3445 49.9176 67.425 48.3602C67.613 44.8695 67.8815 42.3991 68.2306 40.7611C68.7139 38.1565 71.7213 36.3843 77.387 35.3102C81.6833 34.5047 87.2685 34.2093 92.2898 34.5315C98.6806 34.9611 106.36 36.438 106.548 41.1371L107.246 55.6908C107.3 56.738 106.494 57.5972 105.447 57.6509C105.394 57.6241 105.367 57.6241 105.34 57.6241Z" fill="white"/>
<path d="M76.6083 57.6241C76.5815 57.6241 76.6083 57.6241 76.6083 57.6241C75.5611 57.6241 74.7287 56.7648 74.7287 55.7176L74.8093 48.2528C74.8093 47.2324 75.6685 46.4 76.6889 46.4H76.7157C77.763 46.4 78.5954 47.2593 78.5685 48.3065L78.488 55.7713C78.488 56.7917 77.6287 57.6241 76.6083 57.6241Z" fill="white"/>
</svg>
