<svg width="116" height="116" viewBox="0 0 116 116" fill="none" xmlns="http://www.w3.org/2000/svg">
<path d="M57.624 79.025C52.0925 79.025 47.6083 74.1917 47.6083 68.2306C47.6083 64.3908 49.5148 60.7926 52.6296 58.8861C54.187 57.8926 55.9592 57.3556 57.7314 57.3556C63.2629 57.3556 67.774 62.1889 67.774 68.15C67.774 71.9898 65.8407 75.588 62.7527 77.4945C61.1953 78.488 59.4231 79.025 57.624 79.025ZM57.7314 61.1149C56.6574 61.1149 55.6101 61.4371 54.6435 62.0547C54.6435 62.0547 54.6166 62.0547 54.6166 62.0815C52.6027 63.3167 51.3675 65.6797 51.3675 68.2306C51.3675 72.0973 54.187 75.2658 57.624 75.2658C58.7249 75.2658 59.799 74.9435 60.7388 74.326C60.7388 74.326 60.7657 74.326 60.7657 74.2991C62.7796 73.0639 64.0148 70.701 64.0148 68.1232C64.0148 64.2834 61.1953 61.1149 57.7314 61.1149Z" fill="white"/>
<path d="M85.1741 51.8241C84.6639 51.8241 84.1805 51.6361 83.8315 51.2602L74.7824 41.9695H63.9879L59.6648 50.7769C59.3426 51.4213 58.6981 51.8241 57.9731 51.8241C57.2481 51.8241 56.6037 51.4213 56.2815 50.7769L51.9583 41.9695H41.137L32.0611 51.2602C31.5241 51.7972 30.7185 51.9852 30.0203 51.6898C29.3222 51.3945 28.8389 50.7232 28.8389 49.9445L28.7852 41.9695H17.0778C13.5602 41.9695 10.7139 39.1232 10.7139 35.6056V17.3463C10.7139 13.8287 13.5602 10.9824 17.0778 10.9824H98.8148C102.332 10.9824 105.179 13.8287 105.179 17.3463V35.6056C105.179 39.1232 102.332 41.9695 98.8148 41.9695H87.1074L87.0537 49.9445C87.0537 50.6963 86.5972 51.3945 85.8722 51.6898C85.6574 51.7704 85.4157 51.8241 85.1741 51.8241ZM40.3583 38.2102H53.1398C53.8648 38.2102 54.5092 38.613 54.8315 39.2574L57.9731 45.675L61.1148 39.2574C61.437 38.613 62.0815 38.2102 62.8065 38.2102H75.5611C76.0713 38.2102 76.5546 38.425 76.9037 38.7741L83.3213 45.3528L83.3481 40.0898C83.3481 39.0426 84.1805 38.2102 85.2278 38.2102H98.8148C100.238 38.2102 101.419 37.0287 101.419 35.6056V17.3463C101.419 15.9232 100.238 14.7417 98.8148 14.7417H17.0778C15.6546 14.7417 14.4731 15.9232 14.4731 17.3463V35.6056C14.4731 37.0287 15.6546 38.2102 17.0778 38.2102H30.6648C31.712 38.2102 32.5444 39.0426 32.5444 40.0898L32.5713 45.3796L39.0157 38.8009C39.3648 38.425 39.8481 38.2102 40.3583 38.2102Z" fill="#88BDBC"/>
<path d="M31.2019 79.025C25.6704 79.025 21.1862 74.1917 21.1862 68.2306C21.1862 64.3908 23.0926 60.8195 26.1806 58.8861C27.7112 57.8926 29.4834 57.3556 31.3093 57.3556C36.8408 57.3556 41.3519 62.1889 41.3519 68.15C41.3519 71.9898 39.4454 75.588 36.3306 77.4945C34.7732 78.488 33.001 79.025 31.2019 79.025ZM31.3093 61.1149C30.2084 61.1149 29.1612 61.4371 28.2482 62.0278C28.2213 62.0278 28.2213 62.0547 28.1945 62.0547C26.1806 63.2898 24.9454 65.6528 24.9454 68.2037C24.9454 72.0704 27.7649 75.2389 31.2019 75.2389C32.3028 75.2389 33.3769 74.9167 34.3167 74.2991C34.3167 74.2991 34.3436 74.2991 34.3436 74.2723C36.3575 73.0371 37.5926 70.6741 37.5926 68.0963C37.5926 64.2834 34.7732 61.1149 31.3093 61.1149Z" fill="white"/>
<path d="M68.7138 105.206C67.6935 105.206 66.8342 104.373 66.8342 103.353L66.7537 95.8879C66.7537 94.8407 67.5861 94.0083 68.6064 93.9814H68.6333C69.6537 93.9814 70.5129 94.8139 70.5129 95.8342L70.5935 103.299C70.5935 104.346 69.7611 105.206 68.7138 105.206C68.7407 105.206 68.7138 105.206 68.7138 105.206Z" fill="white"/>
<path d="M76.0176 105.206C75.024 105.206 74.1916 104.427 74.1379 103.406L73.4398 88.8259C73.4129 88.3157 71.3453 86.7046 64.8203 86.0064C60.0407 85.4962 54.4555 85.6305 49.8907 86.3555C44.1713 87.2685 42.6944 88.6648 42.6139 88.987C42.6139 89.0138 42.6139 89.0407 42.587 89.0944C41.8083 92.4777 41.6472 97.9824 41.5666 103.353C41.5398 104.4 40.6805 105.232 39.6601 105.206C38.6129 105.179 37.8074 104.319 37.8074 103.299C37.9148 96.3713 38.1564 91.699 38.9083 88.3157C39.3916 85.7111 42.399 83.9388 48.0648 82.8648C52.3611 82.0592 57.9463 81.7638 62.9676 82.0861C69.3583 82.5157 77.0379 83.9925 77.2259 88.6916L77.924 103.245C77.9777 104.293 77.1722 105.152 76.125 105.206C76.0713 105.206 76.0444 105.206 76.0176 105.206Z" fill="white"/>
<path d="M47.2593 105.206H47.2324C46.1852 105.179 45.3528 104.346 45.3797 103.299L45.4871 95.8342C45.5139 94.787 46.3463 93.9546 47.3935 93.9815C48.4408 94.0083 49.2732 94.8407 49.2463 95.8879L49.1389 103.353C49.1121 104.373 48.2797 105.206 47.2593 105.206Z" fill="white"/>
<path d="M12.9426 105.206H12.9158C11.8685 105.179 11.063 104.319 11.063 103.299C11.1704 96.3713 11.4121 91.699 12.1639 88.3157C13.2648 82.5157 27.6574 81.6833 35.1491 82.0324C36.1963 82.0861 36.975 82.9722 36.9482 83.9926C36.8945 85.0398 36.0084 85.8185 34.988 85.7916C30.3695 85.5768 25.563 85.8722 21.7769 86.624C17.1584 87.537 15.95 88.7453 15.8963 89.0139C15.8963 89.0407 15.8963 89.0676 15.8695 89.1213C15.0908 92.5046 14.9297 98.0092 14.8491 103.38C14.7954 104.373 13.963 105.206 12.9426 105.206Z" fill="white"/>
<path d="M20.5685 105.206C19.5213 105.206 18.6888 104.346 18.6888 103.299L18.7694 95.8342C18.7694 94.8139 19.6287 93.9814 20.649 93.9814H20.6759C21.7231 93.9814 22.5555 94.8407 22.5287 95.8879L22.4481 103.353C22.4481 104.373 21.5888 105.206 20.5685 105.206Z" fill="white"/>
<path d="M103.487 105.206C102.467 105.206 101.634 104.373 101.607 103.353C101.527 98.0092 101.366 92.4778 100.587 89.0944C100.587 89.0676 100.56 89.0407 100.56 88.987C100.506 88.7185 99.325 87.5102 94.787 86.5972C91.0546 85.8454 86.275 85.5231 81.6833 85.738C80.6361 85.7917 79.7768 84.9861 79.7231 83.9389C79.6694 82.8917 80.475 82.0324 81.5222 81.9787C86.4898 81.7639 91.6453 82.113 95.6731 82.9454C100.963 84.0463 103.782 85.7917 104.266 88.2889C105.044 91.6722 105.259 96.3444 105.367 103.272C105.393 104.319 104.561 105.179 103.514 105.179C103.514 105.206 103.487 105.206 103.487 105.206Z" fill="white"/>
<path d="M95.8879 105.206C94.8676 105.206 94.0083 104.373 94.0083 103.353L93.9277 95.8879C93.9277 94.8407 94.7601 94.0083 95.7805 93.9814C96.8277 93.9546 97.6601 94.8139 97.687 95.8342L97.7676 103.299C97.7676 104.346 96.9351 105.206 95.8879 105.206Z" fill="white"/>
<path d="M85.2546 79.9917C83.4555 79.9917 81.6833 79.4815 80.1528 78.5417C77.0379 76.6889 75.1046 73.1982 75.1046 69.4389C75.1046 63.6657 79.6157 58.9667 85.1472 58.9667C86.9731 58.9667 88.7185 59.4769 90.2491 60.4167C93.3639 62.2695 95.2703 65.7602 95.2703 69.5194C95.2703 75.2926 90.7861 79.9917 85.2546 79.9917ZM85.1472 62.7259C81.6833 62.7259 78.8639 65.7333 78.8639 69.4389C78.8639 71.8824 80.0991 74.138 82.0861 75.3195C82.0861 75.3195 82.1129 75.3195 82.1129 75.3463C83.0528 75.937 84.1537 76.2324 85.2546 76.2324C88.6916 76.2324 91.5111 73.225 91.5111 69.5194C91.5111 67.0759 90.2759 64.8204 88.2889 63.6389C88.262 63.6389 88.262 63.612 88.2352 63.612C87.3222 63.0213 86.275 62.7259 85.1472 62.7259Z" fill="white"/>
<path d="M65.787 33.1352C65.7333 33.1352 65.6796 33.1352 65.6259 33.1352C64.5787 33.0546 63.8268 32.1416 63.9074 31.0944C63.9343 30.7453 63.9611 30.3694 64.0417 29.9935C64.2296 28.9731 65.1963 28.3018 66.2167 28.4898C67.237 28.6778 67.9083 29.6444 67.7204 30.6648C67.6935 30.8796 67.6667 31.1213 67.6398 31.3898C67.5861 32.3833 66.7537 33.1352 65.787 33.1352Z" fill="white"/>
<path d="M57.8926 33.1352C57.8389 33.1352 57.7852 33.1352 57.7315 33.1352C56.6843 33.0546 55.9324 32.1416 56.013 31.0944C56.0398 30.7453 56.0667 30.3694 56.1472 29.9935C56.3352 28.9731 57.3019 28.3018 58.3222 28.4898C59.3426 28.6778 60.0139 29.6444 59.826 30.6648C59.7991 30.8796 59.7722 31.1213 59.7454 31.3898C59.6917 32.3833 58.8593 33.1352 57.8926 33.1352Z" fill="white"/>
<path d="M50.0249 33.1352C49.9712 33.1352 49.9175 33.1352 49.8638 33.1352C48.8166 33.0546 48.0648 32.1416 48.1453 31.0944C48.1722 30.7453 48.199 30.3694 48.2796 29.9935C48.4675 28.9731 49.4342 28.3018 50.4546 28.4898C51.4749 28.6778 52.1462 29.6444 51.9583 30.6648C51.9314 30.8796 51.9046 31.1213 51.8777 31.3898C51.824 32.3833 50.9916 33.1352 50.0249 33.1352Z" fill="white"/>
</svg>
