<svg width="116" height="116" viewBox="0 0 116 116" fill="none" xmlns="http://www.w3.org/2000/svg">
<path d="M95.4046 52.3074C94.5185 52.3074 93.7398 51.6898 93.5519 50.8037C93.0685 48.4944 92.3704 46.1852 91.4306 43.9833C90.5445 41.8889 89.4167 39.8213 88.0741 37.8343C86.7583 35.8741 85.2546 34.075 83.6704 32.4639C82.0593 30.8528 80.2602 29.3759 78.3 28.0333C76.3935 26.7444 74.3259 25.6167 72.1509 24.7037C69.9759 23.7907 67.6935 23.0657 65.3306 22.5824C64.3102 22.3676 63.6658 21.3741 63.8806 20.3537C64.0954 19.3333 65.0889 18.6889 66.1093 18.9037C68.6871 19.4407 71.238 20.2194 73.6278 21.2398C76.0176 22.2602 78.3 23.4954 80.4213 24.9454C82.5695 26.4222 84.5565 28.0602 86.3287 29.8056C88.1009 31.5778 89.7389 33.5648 91.1889 35.713C92.6658 37.9148 93.9009 40.1972 94.8945 42.5065C95.9148 44.9231 96.7204 47.4741 97.2306 50.025C97.4454 51.0454 96.7741 52.0389 95.7537 52.2537C95.6463 52.3074 95.5389 52.3074 95.4046 52.3074Z" fill="white"/>
<path d="M65.7333 97.338C64.8472 97.338 64.0685 96.7204 63.8805 95.8343C63.6657 94.8139 64.337 93.8204 65.3574 93.6056C67.6935 93.1222 69.9759 92.4241 72.1777 91.4843C74.3527 90.5713 76.4203 89.4435 78.3268 88.1546C80.287 86.8121 82.0861 85.3352 83.6972 83.7241C85.3083 82.113 86.7852 80.3139 88.1278 78.3537C89.4166 76.4472 90.5444 74.3796 91.4574 72.2046C92.3703 70.0296 93.0953 67.7472 93.5787 65.3843C93.7935 64.3639 94.787 63.7195 95.8074 63.9343C96.8277 64.1491 97.4722 65.1426 97.2574 66.163C96.7203 68.7408 95.9416 71.2917 94.9213 73.6815C93.9009 76.0713 92.6657 78.3537 91.2157 80.475C89.7389 82.6232 88.1009 84.6102 86.3555 86.3824C84.5833 88.1547 82.5963 89.7926 80.4481 91.2426C78.3268 92.6658 76.0444 93.9278 73.6546 94.9482C71.2379 95.9685 68.687 96.7741 66.1361 97.2843C65.975 97.338 65.8676 97.338 65.7333 97.338Z" fill="white"/>
<path d="M50.3472 97.3379C50.213 97.3379 50.1056 97.3379 49.9713 97.3111C47.3935 96.774 44.8426 95.9953 42.4528 94.975C40.063 93.9546 37.7806 92.7194 35.6593 91.2694C33.5648 89.8731 31.5778 88.2352 29.7519 86.4092C27.9796 84.637 26.3417 82.65 24.8917 80.5018C23.4148 78.3 22.1796 76.0176 21.1861 73.7083C20.1657 71.3185 19.387 68.7676 18.85 66.1898C18.6352 65.1694 19.3065 64.1759 20.3 63.9611C21.3204 63.7463 22.3139 64.4176 22.5287 65.4111C23.012 67.7472 23.737 70.0565 24.65 72.2315C25.5361 74.3259 26.6639 76.3935 28.0065 78.3805C29.3222 80.3407 30.8259 82.1398 32.4102 83.7509C34.075 85.4157 35.8741 86.8926 37.7806 88.1546C39.687 89.4703 41.7546 90.5713 43.9296 91.5111C46.1046 92.424 48.387 93.149 50.75 93.6324C51.7704 93.8472 52.4148 94.8407 52.2 95.8611C52.012 96.7203 51.2333 97.3379 50.3472 97.3379Z" fill="white"/>
<path d="M20.6759 52.3074C20.5417 52.3074 20.4343 52.3074 20.3 52.2806C19.2796 52.0658 18.6352 51.0722 18.85 50.0519C19.387 47.4741 20.1657 44.9232 21.1861 42.5333C22.2065 40.1435 23.4417 37.8611 24.8917 35.7398C26.288 33.6454 27.9259 31.6583 29.7518 29.8324C31.5241 28.0602 33.5111 26.4222 35.6593 24.9722C37.7805 23.5491 40.063 22.2871 42.4528 21.2667C44.8694 20.2463 47.4204 19.4408 49.9713 18.9306C50.9917 18.7158 51.9852 19.3871 52.2 20.4074C52.4148 21.4278 51.7435 22.4213 50.7231 22.6361C48.387 23.1195 46.1046 23.8176 43.9028 24.7574C41.7278 25.6704 39.6602 26.7982 37.7537 28.0871C35.7935 29.4296 33.9944 30.9065 32.3833 32.5176C30.7185 34.1556 29.2417 35.9815 27.9796 37.888C26.6639 39.7945 25.563 41.8621 24.6231 44.0371C23.7102 46.2121 22.9852 48.4945 22.5018 50.8574C22.3407 51.6898 21.562 52.3074 20.6759 52.3074Z" fill="white"/>
<path d="M58.0537 29.4296C57.0065 29.4296 56.1741 28.5972 56.1741 27.55V11.9222C56.1741 10.875 57.0065 10.0426 58.0537 10.0426C59.1009 10.0426 59.9333 10.875 59.9333 11.9222V27.55C59.9333 28.5972 59.1009 29.4296 58.0537 29.4296Z" fill="#88BDBC"/>
<path d="M27.4963 59.987H11.8685C10.8213 59.987 9.98889 59.1546 9.98889 58.1074C9.98889 57.0602 10.8213 56.2278 11.8685 56.2278H27.4963C28.5435 56.2278 29.3759 57.0602 29.3759 58.1074C29.3759 59.1546 28.5435 59.987 27.4963 59.987Z" fill="#88BDBC"/>
<path d="M58.0537 106.172C57.0065 106.172 56.1741 105.34 56.1741 104.293V88.6379C56.1741 87.5907 57.0065 86.7583 58.0537 86.7583C59.1009 86.7583 59.9333 87.5907 59.9333 88.6379V104.293C59.9333 105.34 59.1009 106.172 58.0537 106.172Z" fill="#88BDBC"/>
<path d="M104.239 59.987H88.5843C87.5371 59.987 86.7047 59.1546 86.7047 58.1074C86.7047 57.0602 87.5371 56.2278 88.5843 56.2278H104.239C105.286 56.2278 106.119 57.0602 106.119 58.1074C106.119 59.1546 105.286 59.987 104.239 59.987Z" fill="#88BDBC"/>
<path d="M58.0269 81.4416C45.138 81.4416 34.6658 70.9694 34.6658 58.0805C34.6658 45.1916 45.138 34.7194 58.0269 34.7194C62.4574 34.7194 66.7537 35.9546 70.4593 38.3176C71.3454 38.8815 71.5871 40.0361 71.05 40.9222C70.4861 41.8083 69.3315 42.05 68.4454 41.5129C65.3306 39.5528 61.7324 38.5055 58 38.5055C47.1787 38.5055 38.3982 47.2861 38.3982 58.1074C38.3982 68.9287 47.1787 77.7092 58 77.7092C68.8213 77.7092 77.6019 68.9287 77.6019 58.1074C77.6019 56.8185 77.4676 55.5296 77.226 54.2676C77.038 53.2472 77.6824 52.2537 78.7028 52.0657C79.7232 51.8778 80.7167 52.5222 80.9047 53.5426C81.2 55.0194 81.3343 56.55 81.3343 58.0805C81.388 70.9694 70.9158 81.4416 58.0269 81.4416Z" fill="white"/>
<path d="M57.1676 68.875C56.6306 68.875 56.1204 68.6334 55.7713 68.2306L44.6278 55.6908C43.9296 54.9121 44.0102 53.7306 44.7889 53.0324C45.5676 52.3343 46.7491 52.4148 47.4472 53.1935L57.1676 64.1491L80.475 37.6732C81.1732 36.8945 82.3546 36.8139 83.1333 37.5121C83.912 38.2102 83.9926 39.3917 83.2945 40.1704L58.5907 68.2306C58.2148 68.6334 57.7046 68.875 57.1676 68.875Z" fill="#88BDBC"/>
</svg>
