<svg width="116" height="116" viewBox="0 0 116 116" fill="none" xmlns="http://www.w3.org/2000/svg">
<path d="M60.8 46.2C59.2 45.8 57.4 46 55.8 47C52 49.1 49.6 51.1 47.7 52.7C44.6 55.2 42.9 56.6 38.1 56.6C38 56.6 38 56.6 37.9 56.6C32.8 56.6 31.2 55.2 28.3 52.7C26.4 51.1 24.1 49.2 20.4 47C16.7 44.9 13.2 46.5 11.7 49.1C10.9 50.5 10.7 52.1 11.2 53.7C11.5 54.8 12.4 56.4 14.6 57.7L26.3 67.3L25.8 99.1C25.8 102.9 29.5 105.2 33.1 105.2C35.1 105.2 36.8 104.5 38 103.3C38.3 103.6 38.7 103.8 39.1 104.1C40.4 104.8 41.9 105.2 43.3 105.2C44.6 105.2 46 104.9 47.1 104.3C48.9 103.2 49.9 101.4 49.9 99.1L49.4 67.3L61.8 57.6C63.9 56.3 64.8 54.6 65.1 53.5C65.5 52 65.3 50.3 64.5 48.9C63.6 47.6 62.3 46.6 60.8 46.2ZM59.5 54.5C59.4 54.6 59.4 54.6 59.3 54.6L46.1 64.9C45.6 65.2 45.4 65.8 45.4 66.4L45.9 99.1C45.9 100 45.6 100.6 45 101C43.9 101.6 42.1 101.6 40.8 100.8C40.3 100.5 39.6 99.9 39.6 99.1C39.6 98.9 39.6 98.8 39.5 98.6V81.7C39.5 80.7 38.7 79.8 37.6 79.8C36.6 79.8 35.7 80.6 35.7 81.7V99.1C35.7 101.1 34 101.4 32.9 101.4C31.2 101.4 29.3 100.5 29.3 99.1L29.8 66.4C29.8 65.8 29.6 65.3 29.1 64.9L16.7 54.6C16.6 54.5 16.5 54.5 16.4 54.4C14.4 53.3 14.3 51.8 14.8 50.9C15.4 49.9 16.7 49.3 18.4 50.2C21.9 52.2 23.9 53.9 25.8 55.5C28.9 58.2 31.4 60.3 37.8 60.3C44 60.3 46.5 58.3 49.9 55.5C51.8 53.9 54 52.2 57.5 50.2C59.2 49.3 60.5 49.8 61 50.8C61.6 51.8 61.5 53.3 59.5 54.5Z" fill="white"/>
<path d="M38 54.2C44 54.2 48.8 49.4 48.8 43.4C48.8 37.4 44 32.6 38 32.6C35.1 32.6 32.4 33.7 30.3 35.8C28.3 37.8 27.2 40.5 27.2 43.4C27.2 49.4 32 54.2 38 54.2ZM33 38.5C34.3 37.2 36.1 36.4 38 36.4C41.9 36.4 45 39.5 45 43.4C45 47.3 41.8 50.4 38 50.4C34.2 50.4 31 47.3 31 43.4C30.9 41.6 31.7 39.8 33 38.5Z" fill="white"/>
<path d="M58.8 63.2C57.8 63.2 56.9 63.9999 56.9 65.0999V103.7C56.9 104.7 57.7 105.6 58.8 105.6C59.8 105.6 60.7 104.8 60.7 103.7V65.0999C60.7 64.0999 59.8 63.2 58.8 63.2Z" fill="#88BDBC"/>
<path d="M99.1 30.6L105.9 23.4C106.4 22.9 106.6 22.1 106.3 21.4C106 20.7 105.3 20.3 104.6 20.3H89.1C88.1 20.3 87.2 21.1 87.2 22.2C87.2 23.2 88 24.1 89.1 24.1H100.3L95.2 29.4C94.5 30.2 94.5 31.2999 95.3 32.0999L100.1 36.7H85.3V32.4C85.3 32.3 85.3 32.1999 85.3 32.0999V17.1C85.3 16.1 84.5 15.2 83.4 15.2H60.7V12.6C60.7 11.6 59.9 10.7 58.8 10.7C57.8 10.7 56.9 11.5 56.9 12.6V42.2999C56.9 43.2999 57.7 44.2 58.8 44.2C59.8 44.2 60.7 43.3999 60.6 42.2999V34H81.5V38.5999C81.5 39.5999 82.3 40.5 83.4 40.5H104.6C105.4 40.5 106.1 40 106.3 39.2999C106.6 38.5999 106.4 37.8 105.9 37.2L99.1 30.6ZM81.5 30H60.7V18.7H81.6V30H81.5Z" fill="#88BDBC"/>
</svg>
