<svg width="116" height="116" viewBox="0 0 116 116" fill="none" xmlns="http://www.w3.org/2000/svg">
<path d="M11.1703 98.6C10.875 98.6 10.5528 98.5194 10.2842 98.3852C9.37127 97.9019 9.0222 96.7472 9.50553 95.8343L44.5203 30.638C44.8426 30.0204 45.5139 29.6176 46.1852 29.6445C46.8833 29.6445 47.5278 30.0472 47.85 30.6648L70.6741 75.5611C71.1574 76.4741 70.7815 77.6287 69.8416 78.0852C68.9287 78.5685 67.7741 78.1926 67.3176 77.2528L46.1046 35.5787L12.8083 97.6065C12.4861 98.2509 11.8416 98.6 11.1703 98.6Z" fill="white"/>
<path d="M104.91 98.6269C104.266 98.6269 103.648 98.3046 103.299 97.7139L78.9982 56.8185L71.4797 64.3639C70.7547 65.0889 69.5463 65.1157 68.8213 64.3639C68.0963 63.6389 68.0695 62.4306 68.8213 61.7056L78.0584 52.4417C78.4611 52.0389 79.0519 51.8241 79.6158 51.9046C80.1797 51.9852 80.7167 52.3074 81.0121 52.8176L106.548 95.8074C107.085 96.6935 106.79 97.8482 105.904 98.3852C105.555 98.5463 105.232 98.6269 104.91 98.6269Z" fill="white"/>
<path d="M81.8177 106.817H31.2556H31.2288C26.3149 106.709 24.3815 104.534 23.6834 103.219C22.7436 101.473 22.8241 99.3518 23.9251 97.5528C25.3482 95.2166 28.0871 93.8741 31.2288 93.9546H35.1491C35.4445 90.5444 38.2371 86.9463 41.9427 86.9463H49.5149C49.8371 84.1268 52.2269 81.925 55.1269 81.925H75.2389C78.3001 81.925 80.7973 84.3685 80.8778 87.4028H87.3491C90.5982 87.4028 94.2232 90.0074 94.2232 93.4981C94.2232 96.9889 90.5982 99.5935 87.3491 99.5935H85.5501C85.7112 100.157 85.8186 100.721 85.8186 101.312C85.8186 103.46 84.6639 105.474 82.7843 106.575C82.4889 106.736 82.1667 106.817 81.8177 106.817ZM31.2825 103.057H81.2269C81.7371 102.628 82.0325 101.983 82.0325 101.312C82.0325 100.506 81.6028 99.7278 80.9047 99.325C80.1797 98.8954 79.8306 98.0361 80.0723 97.2037C80.3139 96.3713 81.0389 95.8342 81.8714 95.8342H87.3491C88.7991 95.8342 90.4639 94.5991 90.4639 93.4981C90.4639 92.3972 88.7991 91.162 87.3491 91.162H78.5954C77.951 91.162 77.3334 90.813 76.9843 90.2759C76.6352 89.712 76.6084 89.0139 76.9038 88.45C77.038 88.1815 77.1186 87.913 77.1186 87.5907C77.1186 86.5435 76.2593 85.6842 75.2121 85.6842H55.1001C54.0528 85.6842 53.1936 86.5435 53.1936 87.5907C53.1936 87.8055 53.2204 88.0204 53.301 88.2083C53.5158 88.7722 53.4084 89.4167 53.0593 89.9268C52.7102 90.437 52.1464 90.7324 51.5288 90.7324H41.8889C40.4121 90.7324 38.8278 92.7194 38.8278 94.5722C38.8278 94.8407 38.8547 95.1092 38.9352 95.3509C39.0964 95.9148 38.9621 96.5324 38.613 96.9889C38.264 97.4454 37.7001 97.7407 37.1093 97.7407H31.1214C31.0945 97.7407 31.0945 97.7407 31.0677 97.7407C28.9464 97.687 27.6038 98.6268 27.0667 99.5398C26.664 100.184 26.6102 100.882 26.9056 101.446C27.4964 102.413 29.1075 103.004 31.2825 103.057Z" fill="white"/>
<path d="M25.1064 72.688C24.6231 72.688 24.1129 72.5 23.7638 72.1241C23.0388 71.3722 23.0657 70.1907 23.8175 69.4657L39.9018 53.9991C40.3583 53.5694 41.0027 53.3815 41.6203 53.5157C42.2379 53.65 42.7481 54.0796 42.9629 54.6704L46.5342 63.9074L50.0518 56.7648C50.2935 56.2546 50.7768 55.8787 51.3407 55.7444C51.9046 55.637 52.4953 55.7713 52.9249 56.1472L66.324 67.2639C67.1296 67.9352 67.237 69.1167 66.5657 69.9222C65.8944 70.7278 64.7129 70.8352 63.9074 70.1639L52.3611 60.5778L48.0111 69.4657C47.6888 70.137 46.9907 70.5398 46.2388 70.513C45.487 70.4861 44.8425 70.0028 44.574 69.3046L40.4925 58.6981L26.449 72.2046C26.0462 72.5 25.5629 72.688 25.1064 72.688Z" fill="white"/>
<path d="M46.1852 33.4305C45.1379 33.4305 44.3055 32.5981 44.3055 31.5509V11.2509C44.3055 10.2037 45.1379 9.37128 46.1852 9.37128C47.2324 9.37128 48.0648 10.2037 48.0648 11.2509V31.5241C48.0648 32.5713 47.2055 33.4305 46.1852 33.4305Z" fill="#88BDBC"/>
<path d="M77.9241 24.2472H46.1852C45.1379 24.2472 44.3055 23.4148 44.3055 22.3676C44.3055 21.3204 45.1379 20.4879 46.1852 20.4879H70.0296L66.0555 18.5009C65.4111 18.1787 65.0083 17.5342 65.0083 16.8092C65.0083 16.0842 65.4111 15.4398 66.0555 15.1176L70.0296 13.1305H46.1852C45.1379 13.1305 44.3055 12.2981 44.3055 11.2509C44.3055 10.2037 45.1379 9.37128 46.1852 9.37128H77.9509C78.8102 9.37128 79.5889 9.96202 79.7768 10.8213C79.9648 11.6805 79.562 12.5398 78.7833 12.9426L71.0768 16.8092L78.7833 20.6759C79.562 21.0787 79.9648 21.9379 79.7768 22.7972C79.562 23.6565 78.8102 24.2472 77.9241 24.2472Z" fill="#88BDBC"/>
</svg>
