<svg width="116" height="116" viewBox="0 0 116 116" fill="none" xmlns="http://www.w3.org/2000/svg">
<path d="M99.0565 105.071H60.6583C58.4833 105.071 56.3352 102.869 56.3352 100.641V87.9935C55.825 87.5639 55.1806 87.2417 54.8315 87.2417C54.1333 87.2148 53.7037 87.537 52.7907 88.2889C51.475 89.3361 49.6759 90.7861 46.2926 90.7861C40.7611 90.7861 36.2769 86.3018 36.2769 80.7704C36.2769 74.9704 40.4926 70.7546 46.2926 70.7546C49.8102 70.7546 51.663 72.3926 53.0056 73.6009C53.9454 74.4333 54.3482 74.7555 54.9389 74.7824C55.5565 74.8093 56.0935 74.5139 56.3352 74.0574V61.9204C56.3352 58.7787 58.913 56.2009 62.0546 56.2009H74.7019C74.8898 56.2009 75.0509 56.2278 75.2389 56.2815C77.2528 56.8722 78.6222 58.8324 78.5685 61.0343C78.5148 62.9139 77.4676 64.0685 76.6352 65.0083C75.7491 66.0018 75.0241 66.8074 75.0241 68.5528C75.0241 71.6944 77.1991 73.8694 80.3407 73.8694C83.2676 73.8694 85.6574 71.4796 85.6574 68.5528C85.6574 66.8074 85.0398 66.0287 84.2343 65.0352C83.4556 64.0685 82.4889 62.8602 82.5157 60.9537C82.5694 59.262 83.7778 57.4361 84.9324 56.5768C85.2546 56.3352 85.6574 56.2009 86.0602 56.2009H93.3907C93.525 56.1741 93.6861 56.1472 93.8472 56.1472H98.5194C99.9694 56.1472 101.527 56.7648 102.789 57.8389C104.185 59.0204 104.991 60.5509 104.991 62.0546V99.9157C104.991 102.762 101.742 105.071 99.0565 105.071ZM60.6852 101.312H99.0565C99.9963 101.312 101.231 100.345 101.231 99.9157V62.0546C101.231 61.1685 99.6472 59.9065 98.5194 59.9065H94.3037C94.1695 59.9333 94.0083 59.9602 93.8472 59.9602H86.812C86.5167 60.3361 86.275 60.8463 86.275 61.0611C86.275 61.5444 86.4898 61.8667 87.1611 62.6991C88.1278 63.8805 89.4167 65.4917 89.4167 68.5796C89.4167 73.5741 85.3352 77.6556 80.3407 77.6556C75.1583 77.6556 71.2648 73.762 71.2648 68.5796C71.2648 65.3843 72.7417 63.7194 73.8157 62.5111C74.5139 61.7324 74.7824 61.3833 74.8093 60.9268C74.8093 60.4972 74.6213 60.1213 74.3259 59.9333H62.0278C60.9537 59.9333 60.0676 60.8194 60.0676 61.8935V74.3796C60.0676 74.5676 60.0407 74.7555 59.987 74.9167C59.3426 77.0648 57.2213 78.5417 54.8315 78.5148C52.8176 78.4611 51.5019 77.3065 50.4815 76.3667C49.3537 75.3463 48.3602 74.487 46.2657 74.487C42.587 74.487 40.0093 77.0648 40.0093 80.7435C40.0093 84.1806 42.8287 87 46.2657 87C48.3333 87 49.3 86.2213 50.4009 85.3352C51.475 84.4759 52.8176 83.4018 54.8852 83.4555C56.7111 83.5092 58.6444 84.7981 59.638 86.0602C59.9065 86.3824 60.0407 86.812 60.0407 87.2148V100.614C60.1213 100.829 60.4704 101.258 60.6852 101.312Z" fill="white"/>
<path d="M103.138 53.3278C102.091 53.3278 101.258 52.4954 101.258 51.4482V17.0778C101.258 16.138 100.292 14.9028 99.862 14.9028H62.0009C61.1954 14.9028 59.8528 16.4065 59.8528 17.6149V29.2954C60.2287 29.5908 60.7389 29.8324 60.9537 29.8324C61.437 29.8324 61.7592 29.6176 62.5917 28.9463C63.7731 27.9797 65.3842 26.6908 68.4722 26.6908C73.4667 26.6908 77.5481 30.7723 77.5481 35.7667C77.5481 40.9491 73.6546 44.8426 68.4722 44.8426C65.2768 44.8426 63.612 43.3658 62.4037 42.2917C61.625 41.5936 61.2759 41.325 60.8194 41.2982C60.3898 41.2713 60.0139 41.4861 59.8259 41.7815V50.1861C59.8259 51.2334 58.9935 52.0658 57.9463 52.0658C56.8991 52.0658 56.0667 51.2334 56.0667 50.1861V41.4056C56.0667 41.2176 56.0935 41.0565 56.1472 40.8686C56.7379 38.8547 58.6981 37.4852 60.9 37.5389C62.7796 37.5926 63.9342 38.6399 64.8741 39.4723C65.8676 40.3584 66.6731 41.0834 68.4185 41.0834C71.5602 41.0834 73.7352 38.9084 73.7352 35.7667C73.7352 32.8398 71.3454 30.45 68.4185 30.45C66.6731 30.45 65.8944 31.0676 64.9009 31.8732C63.9342 32.6519 62.7259 33.6454 60.8194 33.5917C59.1278 33.538 57.3018 32.3297 56.4426 31.175C56.2009 30.8528 56.0667 30.45 56.0667 30.0473V17.6149C56.0667 14.688 58.6981 11.1436 61.9741 11.1436H99.8352C102.681 11.1436 104.991 14.3926 104.991 17.0778V51.4482C105.018 52.4954 104.185 53.3278 103.138 53.3278Z" fill="white"/>
<path d="M50.1324 60.0676H41.3519C41.1639 60.0676 41.0028 60.0408 40.8148 59.9871C38.801 59.3963 37.4315 57.4361 37.4852 55.2343C37.5389 53.3547 38.5861 52.2 39.4185 51.2602C40.3047 50.2667 41.0297 49.4611 41.0297 47.7158C41.0297 44.5741 38.8547 42.3991 35.713 42.3991C32.7861 42.3991 30.3963 44.7889 30.3963 47.7158C30.3963 49.4611 31.0139 50.2398 31.8195 51.2334C32.5982 52.2 33.5648 53.4084 33.538 55.3148C33.4843 57.0065 32.276 58.8324 31.1213 59.6917C30.7991 59.9334 30.3963 60.0676 29.9935 60.0676H17.5611C14.6343 60.0676 11.0898 57.4361 11.0898 54.1602V16.2991C11.0898 13.4528 14.3389 11.1436 17.0241 11.1436H51.3945C52.4417 11.1436 53.2741 11.976 53.2741 13.0232C53.2741 14.0704 52.4417 14.9028 51.3945 14.9028H17.0241C16.0843 14.9028 14.8491 15.8695 14.8491 16.2991V54.1602C14.8491 54.9658 16.3528 56.3084 17.5611 56.3084H29.2417C29.5371 55.9324 29.7787 55.4223 29.7787 55.2074C29.7787 54.7241 29.5639 54.4019 28.8926 53.5695C27.926 52.388 26.6371 50.7769 26.6371 47.6889C26.6371 42.6945 30.7185 38.613 35.713 38.613C40.8954 38.613 44.7889 42.5065 44.7889 47.6889C44.7889 50.8843 43.3121 52.5491 42.238 53.7574C41.5398 54.5361 41.2713 54.8852 41.2445 55.3417C41.2445 55.7713 41.4324 56.1473 41.7278 56.3352H50.1324C51.1797 56.3352 52.0121 57.1676 52.0121 58.2149C52.0121 59.2621 51.1797 60.0676 50.1324 60.0676Z" fill="#88BDBC"/>
<path d="M51.9852 105.044H16.2185C14.8222 105.044 13.4528 104.266 12.4324 102.923C11.5732 101.795 11.063 100.372 11.063 99.1102V64.7399C11.063 63.6926 11.8954 62.8602 12.9426 62.8602C13.9898 62.8602 14.8222 63.6926 14.8222 64.7399V99.1102C14.8222 100.05 15.7889 101.285 16.2185 101.285H51.9852C53.0324 101.285 53.8648 102.118 53.8648 103.165C53.8648 104.212 53.0324 105.044 51.9852 105.044Z" fill="white"/>
</svg>
